<svg width="631" height="141" viewBox="0 0 631 141" fill="none" xmlns="http://www.w3.org/2000/svg">
<path d="M290.7 81.4V70.2C290.7 68.1 288.9 66.3 286.7 66.3H190.3C188.1 66.3 186.3 68 186.3 70.2V77.6C186.3 79.7 188.1 81.5 190.3 81.5L229.1 81.9V92.5L196.7 92.8C194.5 92.8 192.7 94.6 192.7 96.7V104.1C192.7 106.2 194.5 108 196.7 108H265.5V128.7C265.5 130.8 267.3 132.6 269.5 132.6H284V96.7C284 94.6 282.2 92.8 280 92.8L247.9 92.5V81.9L290.7 81.4Z" fill="#0F1423"/>
<path d="M267.6 60.6H281.8V31.5C281.8 29.4 280 27.6 277.8 27.6H199C196.8 27.6 195 29.3 195 31.5V39C195 41.1 196.8 42.9 199 42.9H263.6V56.8C263.6 58.9 265.4 60.6 267.6 60.6Z" fill="#0F1423"/>
<path d="M395.9 132.5C398.1 132.5 400 130.7 400 128.6V121C400 118.8 398.2 117.1 395.9 117.1H321.9V96.5C321.9 94.4 320.2 92.6 318 92.6L311.9 92.4L303.9 92.6V131.6C304.6 132.1 305.5 132.5 306.4 132.5H395.9Z" fill="#0F1423"/>
<path d="M333.2 27.1C333.1 27.1 333.1 27.1 333.2 27.1L306.5 27.4C304.3 27.4 302.5 29.2 302.5 31.3V79.6C302.5 81.8 304.3 83.5 306.6 83.5H365.2V31.3C365.2 29.2 363.4 27.4 361.2 27.4L333.2 27.1ZM347.8 68.7C344.9 68.9 340.3 68.9 335.6 68.9C329.9 68.9 324 68.8 320.4 68.7C320.2 64.4 320.2 46.6 320.4 42.3C328.1 42.2 341.4 42.1 347.7 42.3C348.1 46.5 348.1 64.5 347.8 68.7Z" fill="#0F1423"/>
<path d="M400.7 83.9V31C400.7 28.8 398.9 27.1 396.6 27.1H386.5C384.3 27.1 382.4 28.9 382.4 31V80C382.4 82.2 384.2 83.9 386.5 83.9H400.7Z" fill="#0F1423"/>
<path d="M575.3 92.3C539.3 92.3 528.2 98.8 528.2 116.6C528.2 132.8 537.6 141 575.3 141C611.3 141 622.4 134.5 622.4 116.6C622.4 100.5 613.1 92.3 575.3 92.3ZM575.3 125.9C549.8 125.9 546.6 122.5 546.6 116.5C546.6 110.2 549.6 107.2 575.3 107.2C600.8 107.2 604 110.6 604 116.5C604 122.9 600.9 125.9 575.3 125.9Z" fill="#0F1423"/>
<path d="M586.4 45.7V33.7C586.4 31.8 584.9 30.3 583.1 30.3L553.5 30L530 30.3C527.8 30.3 526 32.1 526 34.4V77.7C526 79.9 527.8 81.8 530 81.8H591.2V70.5C591.2 68.3 589.4 66.4 587.2 66.4H544V45.7H586.4Z" fill="#0F1423"/>
<path d="M630.9 48.2L620.4 48L620.2 32.6C620.2 30.4 618.4 28.6 616.2 28.6H605.9C603.7 28.6 601.9 30.4 601.9 32.7V81.9C601.9 84.1 603.7 86 605.9 86H620.1L620.3 66.7L630.9 66.3V48.2Z" fill="#0F1423"/>
<path d="M415.5 60.8C415.5 81.9 425.5 93.5 448.6 93.5C471.7 93.5 481.7 81.9 481.7 60.8C481.7 39.8 471.7 28.1 448.6 28.1C425.5 28.1 415.5 39.8 415.5 60.8ZM448.6 43.4C459.3 43.4 463.7 49.4 463.7 60.7C463.7 72.1 459.3 78.2 448.6 78.2C437.7 78.2 433.5 72.1 433.5 60.7C433.5 49.4 437.7 43.4 448.6 43.4Z" fill="#0F1423"/>
<path d="M417.3 105.8C415.2 105.8 413.4 107.5 413.4 109.7V117.4C413.4 119.5 415.1 121.3 417.3 121.3H486.8V109.8C486.8 107.7 485.1 105.9 482.9 105.9H417.3V105.8Z" fill="#0F1423"/>
<path d="M496.1 28.1C493.8 28.1 491.9 30 491.9 32.3V128.7C491.9 130.8 493.6 132.6 495.8 132.6H509V32.6C509 30.2 507 28.2 504.6 28.2H496.1V28.1Z" fill="#0F1423"/>
<path d="M66 77.9C64.3 80.4 58.9 84.3 49.6 81.7C48.5 81.4 45 80 44.4 79.7C29.8 73.4 12.4 78.9 4.3 93C-1.6 103.2 -1.2 115.4 4.3 125C9.8 134.6 20.2 141 32 140.9C48.3 140.8 61.7 128.5 63.5 112.7C63.6 112 64.1 108.3 64.3 107.2C66.7 97.9 72.7 95 75.7 94.8C75.8 94.8 76 94.8 76.2 94.8C76.5 94.8 76.8 94.8 76.9 94.8C79.9 95 85.9 97.8 88.3 107.2C88.6 108.3 89.1 112 89.1 112.7C90.9 128.5 104.3 140.8 120.6 140.9C132.4 140.9 142.8 134.5 148.3 125C153.8 115.5 154.2 103.3 148.3 93C140.1 78.9 122.8 73.4 108.2 79.7C107.6 80 104.1 81.4 103 81.7C93.7 84.3 88.2 81.9 86.6 79.4L86 78.3C84.7 75.6 84.1 68.3 91 61.5C91.8 60.7 94.8 58.1 95.3 57.7C108.1 48.2 112 30.3 103.9 16.1C98.2 5.8 87.4 0 76.4 0C65.4 0 54.6 5.7 48.7 16C40.6 30.1 44.5 47.9 57.3 57.4C57.8 57.8 60.8 60.1 61.6 60.9C68.5 67.7 67.9 74.3 66.6 77C66.6 77 66.3 77.5 66 77.9Z" fill="#DE5511"/>
</svg>
