<svg width="524" height="122" viewBox="0 0 524 122" fill="none" xmlns="http://www.w3.org/2000/svg">
<path d="M348.725 83.5341L349.615 102.224L408.604 99.8L407.847 81.9031L348.725 83.5341Z" fill="#211714"/>
<path d="M377.64 38.6592C384.029 38.6592 386.989 42.8689 386.989 47.9162C386.989 52.9415 383.739 57.1733 377.64 57.1733C371.474 57.1733 368.291 52.9635 368.291 47.9162C368.291 42.891 371.341 38.6592 377.64 38.6592ZM377.64 75.3567C395.76 75.3567 405.376 62.8377 405.376 47.9162C405.376 32.9948 396.628 20.4757 377.64 20.4757C358.942 20.4757 349.904 32.9948 349.904 47.9162C349.904 62.8377 359.342 75.3567 377.64 75.3567Z" fill="#211714"/>
<path d="M281.477 78.4644H261.8V109.365H262.49H339.598V92.0634L281.477 92.5042V78.4644Z" fill="#211714"/>
<path d="M275.044 56.6885V39.9818H290.515V55.0135C286.063 56.1155 280.409 56.5563 275.044 56.6885ZM290.515 72.7782H308.746V22.6799H256.747V72.9545C256.747 72.9545 274.421 72.7561 290.537 70.2876V72.7782H290.515Z" fill="#211714"/>
<path d="M337.016 19.1971H317.338V84.8781H337.016V19.1971Z" fill="#211714"/>
<path d="M431.087 19.1971H411.409V109.365H431.087V19.1971Z" fill="#211714"/>
<path d="M500.694 37.8877V24.1123H481.773V17.7646H462.095V24.1344H443.174V37.9097C443.174 37.9097 459.179 36.962 471.266 36.962C483.376 36.94 500.694 37.8877 500.694 37.8877Z" fill="#211714"/>
<path d="M503.766 95.1047H467.905V91.2035H503.766V95.1047ZM448.227 77.0975V110.687H467.905V109.387H503.766V110.687H523.443V77.0975H448.227Z" fill="#211714"/>
<path d="M471.711 51.2002C476.942 51.2002 480.504 53.1618 480.504 55.8948C480.504 58.6278 476.965 60.5895 471.711 60.5895C466.48 60.5895 462.918 58.6278 462.918 55.8948C462.941 53.1618 466.48 51.2002 471.711 51.2002ZM471.934 73.4612C490.365 73.4612 499.069 65.4604 499.069 55.9169C499.069 46.3733 491.233 38.3726 471.934 38.3726C452.924 38.3726 444.799 46.3733 444.799 55.9169C444.799 65.4384 453.347 73.4612 471.934 73.4612Z" fill="#211714"/>
<path d="M523.443 19.1971H503.766V74.1884H523.443V19.1971Z" fill="#211714"/>
<path d="M161.162 72.2268H193.684V78.4643H168.219V95.8543L220.04 94.8845V109.409H239.718V78.4643H213.362V72.2268H246.93V55.4319H161.162V72.2268Z" fill="#211714"/>
<path d="M217.88 52.8314L236.735 52.7652C241.008 36.0144 241.276 21.5558 241.276 21.5558H168.552V38.7915L221.286 38.1964C220.618 43.3539 219.572 48.7318 217.88 52.8314Z" fill="#211714"/>
<path d="M41.0251 0L0 40.6649V121.973H82.1838L123.187 81.3297V0H41.0251Z" fill="#E61E2B"/>
</svg>
