<svg width="607" height="104" viewBox="0 0 607 104" fill="none" xmlns="http://www.w3.org/2000/svg">
<path d="M414.2 66.7V80H482.9V98.2H497.8L497.9 76C497.9 67.3 492.3 66.7 488.6 66.7H414.2Z" fill="#19233C"/>
<path d="M501.8 48.3H410V60.1H501.8V48.3Z" fill="#19233C"/>
<path d="M421.3 41.8L497.5 41.6V29.2L428.4 29.5V18.5L491.2 18.4L496.6 6H421.2C417 6 414.1 8.6 414.1 12.4V35.4C414.2 39.1 417.1 41.8 421.3 41.8Z" fill="#19233C"/>
<path d="M257.4 55.3V47.7H283C288.3 47.7 290.9 43.7 290.9 40.3V7.09998H276.3V16.5L226.2 16.7L231.6 28.2H276.3V36H224.1V7.09998H209.5V40C209.5 43.9 212.2 47.7 217.4 47.7H242.9V55.3H204.4V67.1H296.2V55.3H257.4Z" fill="#19233C"/>
<path d="M223.8 71.2999H208.2V90.8999C208.2 94.2999 211.6 97.9999 216.1 97.9999H292.3V84.1999H223.8V71.2999Z" fill="#19233C"/>
<path d="M191.4 5.40002H176.8V98.4H191.4V5.40002Z" fill="#19233C"/>
<path d="M163.2 30.1001C163.2 27.1001 163.3 25.4001 163.3 21.6001C163.3 17.7001 163.7 12.9001 160.6 9.80008C157.4 6.60008 154.1 6.80008 149.6 6.80008L104.1 7.00008L109.8 20.4001H147.8C147.8 20.4001 148.8 34.8001 146.9 37.8001C139.7 49.3001 105 85.7001 105 85.7001L116.1 94.2001C116.1 94.2001 151.2 59.3001 160.7 43.6001C162.6 40.7001 163.1 36.8001 163.2 30.1001Z" fill="#19233C"/>
<path d="M572.1 59H539.6C524.1 59 513.7 67 513.7 78.8C513.7 91.2 523.4 98.6 539.6 98.6H572.1C588.2 98.6 597.9 91.2 597.9 78.8C597.9 66.9 587.5 59 572.1 59ZM581.5 79C581.5 83.2 578.2 85.3 570.7 85.3H539.5C533.6 85.3 530.1 82.8 530.1 79C530.1 74.8 532.9 72.7 539.5 72.7H570.7C578.2 72.7 581.5 74.9 581.5 79Z" fill="#19233C"/>
<path d="M526 38.7V20.5L567.2 20.4L573.2 7.59998H518.9C515.3 7.59998 511 8.99998 511 15.7V44.2C511 47.6 514.3 51.4 518.8 51.4C522.7 51.4 529.9 51.4 537.7 51.4C553.2 51.4 571.2 51.4 571.5 51.4H572.7V38.6L526 38.7Z" fill="#19233C"/>
<path d="M594.2 23L594.3 5.6L579.6 5.5L579.4 54.6H594.1L594.2 37.6H606.1V23H594.2Z" fill="#19233C"/>
<path d="M360.7 84V54.2H345.4V84H306.8V98H399.3V84H360.7Z" fill="#19233C"/>
<path d="M390 67.7L399.3 54.2L365 13.5L356.5 27.8L390 67.7Z" fill="#19233C"/>
<path d="M316.3 68.2L306.9 55.1L344.8 10.2C347.3 7.2 350 6 353.4 6C356.6 6 358.5 6.9 361.2 9.4L363.6 11.8L316.3 68.2Z" fill="#19233C"/>
<path d="M44.6 0C20 0 0 20 0 44.6C0 69.2 20 89.2 44.6 89.2C46.5 89.2 48.1 89.1 50 88.9L44.4 104C44.4 104 89.1 81.8 89.1 44.6C89.1 20 69.2 0 44.6 0ZM74.2 45C74.2 66.9 52.5 81.8 52.5 81.8L56.1 71.9C52.5 73.4 48.6 74.2 44.5 74.2C28.1 74.2 14.9 60.9 14.9 44.6C14.9 28.3 28.2 15 44.5 15C60.8 15 74.2 27.9 74.2 45C74.2 45.3 74.2 44.7 74.2 45Z" fill="#19233C"/>
</svg>
