<svg width="570" height="99" viewBox="0 0 570 99" fill="none" xmlns="http://www.w3.org/2000/svg">
<path d="M20.9541 72.2891V23.2245H52.3923V3.16211H0V94.8978L57.8217 87.7067L54.0308 66.9588L20.9541 72.2891Z" fill="#00A0E2"/>
<path d="M63.2652 35.2141H38.3119V54.6888H63.2652V98.0594H84.6776V0H63.2652V35.2141Z" fill="#00A0E2"/>
<path d="M338.307 1.58069H284.498V54.8845H338.307V1.58069ZM318.575 37.9979H304.578V18.4672H318.575V37.9979Z" fill="#00A0E2"/>
<path d="M369.162 0H347.722V72.7645H369.162V0Z" fill="#00A0E2"/>
<path d="M310.202 62.9851H288.484V98.0593H370.592V80.739H310.202V62.9851Z" fill="#00A0E2"/>
<path d="M525.825 31.5203L494.067 35.4936V18.9989H524.922V1.58069H473.113V54.4927L528.699 49.3582L525.825 31.5203Z" fill="#00A0E2"/>
<path d="M555.013 22.5527V0H534.059V54.1712H555.013V41.0061H569.205V22.5527H555.013Z" fill="#00A0E2"/>
<path d="M538.156 58.4663H494.734C484.347 58.4663 476.154 66.8466 476.154 78.3328C476.154 89.7071 484.347 98.1993 494.734 98.1993H538.156C548.82 98.1993 556.916 89.7211 556.916 78.3328C556.916 66.8466 548.82 58.4663 538.156 58.4663ZM530.588 81.9144H502.232C500.066 81.9144 498.358 80.8091 498.358 77.7592C498.358 74.3315 500.066 73.4921 502.232 73.4921H530.588C533.115 73.4921 534.809 74.3455 534.809 77.7592C534.809 80.8091 533.101 81.9144 530.588 81.9144Z" fill="#00A0E2"/>
<path d="M177.603 0.55957H150.706V8.73002H123.35V0.55957H96.6335V34.7803H177.59V0.55957H177.603ZM150.692 24.889H123.35V17.6H150.692V24.889Z" fill="#00A0E2"/>
<path d="M93.3009 53.234H127.03V59.4038H96.6336V68.4697H150.803V74.1778H96.6336V98.0596H179.034V88.7979L124.114 88.7279V82.9778L177.603 82.9918V59.4038H147.11V53.234H180.922V40.3907H93.3009V53.234Z" fill="#00A0E2"/>
<path d="M377.66 75.199H410.723V98.3813H432.247V75.199H465.309V57.4451H377.66V75.199Z" fill="#00A0E2"/>
<path d="M379.077 35.1299L387.894 54.171L421.485 41.6215L455.603 54.115L463.893 35.0599L432.219 26.204V19.5305H461.977V1.58069H381.007V19.5305H410.765V26.19L379.077 35.1299Z" fill="#00A0E2"/>
<path d="M252.602 35.4379H240.299V26.512C240.299 10.9825 228.87 0.419715 214.776 0.419715C200.765 0.419715 189.351 10.9825 189.351 26.512V71.6313C189.351 87.1608 200.765 97.7096 214.776 97.7096C228.884 97.7096 240.299 87.1608 240.299 71.6313V56.3537H252.602V98.0594H273.959V0H252.602V35.4379ZM220.317 75.7026C220.317 78.6545 218.123 81.2848 215.095 81.2848C212.082 81.2848 209.971 78.6685 209.971 75.7026V24.0217C209.971 21.2236 212.082 18.3695 215.095 18.3695C218.123 18.3695 220.317 21.2376 220.317 24.0217V75.7026Z" fill="#00A0E2"/>
</svg>
