<svg width="180" height="80" viewBox="-100 -10 400 100" fill="none" xmlns="http://www.w3.org/2000/svg">
<path d="M166.9 0.699951L171.5 9.29995C171.5 9.29995 187.9 14.8 188.1 29.7C188.1 29.7 193.1 3.19995 166.9 0.699951Z" fill="#B081B7"/>
<path d="M184.1 6.6L185.2 0C185.2 0 198.9 8.5 188.1 29.7C188.1 29.7 192.5 17.6 184.1 6.6Z" fill="#834F99"/>
<path d="M192.5 7.49995L195.8 1.19995C195.8 1.19995 205.2 13.8 188.1 29.7C188.1 29.7 196.5 20.9 192.5 7.49995Z" fill="#5A147E"/>
<path d="M23.4 53.9C22.2 53.2 21.2 52.4 20.3 51.4C19.4 50.4 18.7 49.3 18.2 48C17.7 46.7 17.4 45.3 17.4 43.6V28.2C17.4 27.4 17.3 26.8 17.1 26.5C16.9 26.1 16.3 25.9 15.4 25.9H8.1L8.4 26.1C8.7 26.4 9.1 26.8 9.4 27.3C9.7 27.8 9.9 28.4 9.9 29.2V43.7C9.9 45.3 9.6 46.8 9.1 48.1C8.6 49.4 7.9 50.5 7 51.5C6.1 52.5 5.1 53.3 3.9 54C2.7 54.7 1.4 55.2 0.1 55.7H0L0.6 57.4C0.9 58.3 1.5 58.9 2.2 59.3C2.9 59.7 4 59.7 5.2 59.2C7.2 58.4 8.9 57.6 10.2 56.6C11.5 55.7 12.7 54.6 13.6 53.3C14.5 54.5 15.7 55.6 17 56.6C18.4 57.6 20.1 58.5 22 59.2C22.7 59.5 23.3 59.6 23.8 59.6C24.2 59.6 24.6 59.5 25 59.3C25.7 58.9 26.3 58.3 26.6 57.4L27.2 55.7H27.1C25.9 55.1 24.6 54.6 23.4 53.9Z" fill="#5A147E"/>
<path d="M37.0999 24.5H29.8999L30.1999 24.7C30.4999 25 30.8999 25.4 31.1999 25.9C31.4999 26.4 31.6999 27 31.6999 27.8V66.3H33.4999C34.3999 66.3 35.1999 66.2 35.8999 66C36.5999 65.8 37.1999 65.5 37.6999 65C38.1999 64.5 38.5999 63.9 38.7999 63.1C39.0999 62.3 39.1999 61.4 39.1999 60.2V26.7C39.1999 25.9 39.0999 25.4 38.8999 25C38.5999 24.7 37.9999 24.5 37.0999 24.5Z" fill="#5A147E"/>
<path d="M85.2002 24.5H78.5002L78.8002 24.7C79.1002 25 79.5002 25.4 79.8002 25.9C80.1002 26.4 80.3002 27 80.3002 27.8V40.6H76.9002V27.7C76.9002 26.9 76.8002 26.3 76.6002 26C76.4002 25.6 75.8002 25.4 74.9002 25.4H68.2002L68.5002 25.6C68.8002 25.9 69.2002 26.3 69.5002 26.8C69.8002 27.3 70.0002 27.9 70.0002 28.7V65.3H71.2002C72.1002 65.3 72.9002 65.2 73.6002 65C74.3002 64.8 74.9002 64.5 75.4002 64C75.9002 63.5 76.3002 62.9 76.5002 62.1C76.8002 61.3 76.9002 60.4 76.9002 59.2V45.4H80.2002V66.3H81.4002C82.3002 66.3 83.1002 66.2 83.8002 66C84.5002 65.8 85.1002 65.5 85.6002 65C86.1002 64.5 86.5002 63.9 86.7002 63.1C87.0002 62.3 87.1002 61.4 87.1002 60.2V26.7C87.1002 25.9 87.0002 25.4 86.8002 25C86.7002 24.7 86.1002 24.5 85.2002 24.5Z" fill="#5A147E"/>
<path d="M57.4 31.4H62.5C64.3 31.4 65.5 31.1 66.1 30.4C66.7 29.7 67 29 67 28V26.5H48L48.3 26.7C48.7 27.1 49.1 27.5 49.4 27.9C49.7 28.3 49.9 29 49.9 29.8V53.7C49.9 54.8 50 55.7 50.3 56.4C50.6 57.1 51 57.6 51.5 58C52 58.4 52.7 58.6 53.4 58.7C54.1 58.8 55 58.9 55.9 58.9H64C65.8 58.9 67 58.6 67.6 57.9C68.2 57.2 68.5 56.5 68.5 55.5V54H57.4V31.4Z" fill="#5A147E"/>
<path d="M106.6 47.4C107.9 46.5 109.1 45.4 110 44.1C110.9 45.3 112.1 46.4 113.4 47.4C114.8 48.4 116.5 49.3 118.5 50C119.2 50.3 119.8 50.4 120.3 50.4C120.7 50.4 121.1 50.3 121.5 50.1C122.2 49.7 122.8 49.1 123.1 48.2L123.7 46.5H123.6C122.3 46.1 121 45.5 119.8 44.8C118.6 44.1 117.6 43.3 116.7 42.3C115.8 41.3 115.1 40.2 114.6 38.9C114.1 37.6 113.8 36.2 113.8 34.5V31.2H118.2C120 31.2 121.2 30.9 121.8 30.2C122.4 29.5 122.7 28.8 122.7 27.8V26.3H100.6C99.8999 26.3 99.2999 26.1 98.6999 25.8C98.1999 25.5 97.7999 25.2 97.4999 24.8L97.2999 24.5V29.1C97.2999 30 97.4999 30.6 97.8999 30.8C98.2999 31 98.7999 31.1 99.5999 31.1H106.3V34.4C106.3 36 106 37.5 105.5 38.8C105 40.1 104.3 41.2 103.4 42.2C102.5 43.2 101.5 44 100.3 44.7C99.0999 45.4 97.7999 45.9 96.4999 46.4H96.3999L96.9999 48.1C97.2999 49 97.8999 49.6 98.5999 50C99.2999 50.4 100.4 50.4 101.6 49.9C103.5 49.3 105.2 48.4 106.6 47.4Z" fill="#5A147E"/>
<path d="M109.7 54.4C109.7 53.6 109.6 53 109.4 52.7C109.2 52.3 108.6 52.1 107.7 52.1H100.5L100.8 52.3C101.1 52.6 101.5 52.9 101.8 53.5C102.1 54 102.3 54.6 102.3 55.4V62C102.3 63.1 102.4 64 102.7 64.7C103 65.4 103.4 65.9 103.9 66.3C104.4 66.7 105.1 66.9 105.8 67C106.5 67.1 107.4 67.2 108.3 67.2H131.5C133.3 67.2 134.5 66.9 135.1 66.2C135.7 65.5 136 64.8 136 63.8V62.3H109.8V54.4H109.7Z" fill="#5A147E"/>
<path d="M127.5 25.9C127.8 26.4 128 27 128 27.8V35.3H119.5V36.8C119.5 37.7 119.8 38.5 120.4 39.2C121 39.9 122.2 40.2 124 40.2H128V57.4H129.8C130.7 57.4 131.5 57.3 132.2 57.1C132.9 56.9 133.5 56.6 134 56.1C134.5 55.6 134.9 55 135.1 54.2C135.4 53.4 135.5 52.5 135.5 51.3V26.7C135.5 25.9 135.4 25.3 135.2 25C135 24.6 134.4 24.4 133.5 24.4H126.3L126.6 24.6C126.9 25 127.2 25.4 127.5 25.9Z" fill="#5A147E"/>
<path d="M146.2 31.8C146.6 32 147.1 32.1 147.9 32.1H165.8C167.6 32.1 168.8 31.8 169.4 31.2C170 30.6 170.3 29.9 170.3 29V27.8H161.7V27.4C161.7 26.6 161.6 26 161.4 25.7C161.2 25.3 160.6 25.1 159.7 25.1H152.5L152.8 25.3C153.1 25.5 153.4 25.9 153.7 26.3C154 26.7 154.1 27.2 154.2 27.7H148.9C148.2 27.7 147.6 27.6 147 27.3C146.5 27 146.1 26.7 145.8 26.4L145.6 26.1V30.2C145.7 31.1 145.9 31.6 146.2 31.8Z" fill="#5A147E"/>
<path d="M181.5 36V26.7C181.5 25.9 181.4 25.4 181.2 25C181 24.6 180.4 24.4 179.5 24.4H172.3L172.6 24.6C172.9 24.9 173.3 25.3 173.6 25.8C173.9 26.3 174.1 26.9 174.1 27.7V57.3H175.9C176.8 57.3 177.6 57.2 178.3 57C179 56.8 179.6 56.5 180.1 56C180.6 55.5 181 54.9 181.2 54.1C181.5 53.3 181.6 52.4 181.6 51.2V40.9H183.7C185.5 40.9 186.7 40.6 187.3 39.9C187.9 39.2 188.2 38.5 188.2 37.5V36H181.5Z" fill="#5A147E"/>
<path d="M170.9 49.1C171.5 48.4 171.8 47.7 171.8 46.7V45.1H161.8V43.6H163.7C165.8 43.6 167.3 43.2 168.1 42.3C168.9 41.4 169.4 40.2 169.4 38.5C169.4 36.9 169 35.6 168.1 34.7C167.3 33.9 165.8 33.4 163.7 33.4H152.4C150.3 33.4 148.8 33.8 148 34.7C147.2 35.5 146.7 36.8 146.7 38.5C146.7 40.2 147.1 41.5 148 42.3C148.8 43.1 150.3 43.6 152.4 43.6H154.3C154.3 43.7 154.3 43.9 154.3 44.2V45.2H147.6C146.9 45.2 146.3 45 145.7 44.7C145.2 44.4 144.8 44.1 144.5 43.7L144.3 43.4V48.1C144.3 49 144.5 49.6 144.9 49.8C145.3 50 145.8 50.1 146.6 50.1H167.3C169.1 50.1 170.3 49.8 170.9 49.1ZM160.5 39.7H155.6C155 39.7 154.7 39.6 154.5 39.4C154.3 39.2 154.2 38.9 154.2 38.5C154.2 38.2 154.3 37.9 154.5 37.7C154.7 37.5 155.1 37.4 155.6 37.4H160.5C161.1 37.4 161.4 37.5 161.6 37.7C161.8 37.9 161.9 38.2 161.9 38.5C161.9 38.9 161.8 39.2 161.6 39.4C161.4 39.6 161 39.7 160.5 39.7Z" fill="#5A147E"/>
<path d="M158.2 54.4C158.2 53.6 158.1 53 157.9 52.7C157.7 52.3 157.1 52.1 156.2 52.1H149L149.3 52.3C149.6 52.6 150 53 150.3 53.5C150.6 54 150.8 54.6 150.8 55.4V62C150.8 63.1 150.9 64 151.2 64.7C151.5 65.4 151.9 65.9 152.4 66.3C152.9 66.7 153.6 66.9 154.3 67C155 67.1 155.9 67.2 156.8 67.2H177.5C179.3 67.2 180.5 66.9 181.1 66.2C181.7 65.5 182 64.7 182 63.8V62.3H158.2V54.4Z" fill="#5A147E"/>
</svg>
