<svg width="413" height="247" viewBox="0 0 413 247" fill="none" xmlns="http://www.w3.org/2000/svg">
<path d="M337.2 36.1L412.6 16.9V185.9L337.2 170.3V36.1Z" fill="#FDC300"/>
<path d="M268.4 32.8V80.8H280.7V42L364.7 16.5V229.6L280.7 204.2V164.4H268.4V213.3L377 246.1V0L268.4 32.8Z" fill="#154194"/>
<path d="M5.2 155.6L5.3 148.5V142.4L5.2 135.2H47.5V132H5.2L5.3 128.6V126.6L5.2 123.2H61.5L61.4 130.3V135.6L61.5 142.7H20V146H63.5L63.4 149.4V152.1L63.5 155.5H5.2V155.6ZM19.4 120.8C7.8 120.8 0 114.3 0 104.5C0 94.7 7.8 88.2 19.4 88.2C31 88.2 38.8 94.8 38.8 104.5C38.8 114.3 31 120.8 19.4 120.8ZM19.4 99.5C16.1 99.5 14.1 101.4 14.1 104.5C14.1 107.6 16.1 109.5 19.4 109.5C22.7 109.5 24.7 107.6 24.7 104.5C24.7 101.4 22.7 99.5 19.4 99.5ZM47.6 120.8L47.7 117.7H41.2L41.3 114.9V111.6L41.2 108.1H47.7V103.8H41.2L41.3 100.4V97L41.2 94H47.7L47.6 87.3H61.5L61.4 94.4V113.9L61.5 121H47.6V120.8Z" fill="#154194"/>
<path d="M72.3 154.9L72.4 147.8V139.8L72.3 132.7H87.3L87.2 139.8V141.8H129L128.9 145.2V151.4L129 154.8H72.3V154.9ZM113.3 136.8L113.4 129.7V94.5L113.3 87.4H128L127.9 94.5V129.8L128 136.9H113.3V136.8ZM68.8 122.9V110.9L68.7 103.9H91.9V100.6H68.6L68.7 97.2V93.5L68.6 90.1H105.4L105.3 97.1V107L105.4 114H82.6V118.2H82.8C90.9 118.1 98.3 117.7 103.6 116.8C105.7 116.5 108.6 116 109.6 115.7L111.4 126.6C102.4 128.4 89.4 129.5 77.4 129.9C74.9 130 71.6 130 68.7 130L68.8 122.9Z" fill="#154194"/>
<path d="M137.2 154.9L137.3 147.8V138.3L137.2 131.2H152.2L152.1 138.3V141.8H194.6L194.5 145.2V151.4L194.6 154.8H137.2V154.9ZM178.4 136.1L178.5 129V94.5L178.4 87.3H193.1L193 94.5V129L193.1 136.1H178.4ZM134.2 126.6L134.3 119.5V97.4L134.2 90.3H171.4L171.3 97.4V119.5L171.4 126.6H134.2ZM147.7 114.4H158.4V103H147.7V114.4Z" fill="#154194"/>
<path d="M222.4 154.9L222.5 147.8V137.3H197.4L197.5 133.9V128.4L197.4 125H261.9L261.8 128.4V133.9L261.9 137.3H236.8V147.8L236.9 154.9H222.4ZM254.5 122.3C243 120.5 235.1 117.2 229.8 111.2L229.6 111L229.4 111.2C224.1 117.2 216.4 120.5 204.9 122.3L199 109.6C200.9 109.6 202.9 109.4 204.8 109.2C212.3 108.3 218.8 105.1 221.7 100.8L221.9 100.5H201.9L202 97.1V92.1L201.9 88.7H257.2L257.1 92.1V97.1L257.2 100.5H237.1L237.3 100.8C240.1 105.3 246.1 108.3 254.3 109.2H254.8C256.7 109.4 258.4 109.5 260.1 109.5L254.5 122.3Z" fill="#154194"/>
<path d="M296.4 156.7C277.5 156.7 268.3 151.9 268.3 141.9C268.3 131.9 277.5 127 296.4 127C315.3 127 324.5 131.9 324.5 141.9C324.4 151.8 315.2 156.7 296.4 156.7ZM296.4 137.3C292.6 137.3 287.5 138 284.5 139C283.3 139.4 282.8 140.2 282.8 141.5C282.8 142.7 283.4 143.5 284.5 143.9C287.6 144.9 292.6 145.6 296.4 145.6C300.2 145.6 305.3 144.9 308.3 143.9C309.5 143.4 310 142.6 310 141.4C310 140.1 309.4 139.3 308.3 138.9C305.2 138 300.2 137.3 296.4 137.3ZM308 126L308.1 118.9V94.3L308 87.2H322.3L322.2 94.3V101.5H329.5L329.4 104.9V110.4L329.5 113.8H322.2V118.8L322.3 125.9H308V126ZM265.6 117.6V96.7L265.5 89.6H301.2L301.1 93V99L301.2 102.4H280.3V111.7H280.5C288.1 111.3 295.3 110.6 299.9 109.7C302 109.3 303.3 109 304.3 108.7L306.1 120.8C297.4 122.6 284.9 124 272.6 124.5C271.1 124.6 267.6 124.7 265.4 124.7L265.6 117.6Z" fill="#154194"/>
</svg>
