<svg width="433" height="271" viewBox="0 0 433 271" fill="none" xmlns="http://www.w3.org/2000/svg">
<path d="M317 152.1C313.9 148.9 314.5 143.2 314.5 139.5V126H368.5V102.2H289.3V156.5C289.3 156.6 288.9 167 295.9 174.3C300.4 179 307 181.4 315.4 181.4H368.5V156.2H327.2C322.7 156.2 319.5 154.7 317 152.1Z" fill="black"/>
<path d="M54.9 125.3H85.8V102.2H2.3V125.3H31.7L0 156L17.1 173.1L34.2 155.9L43.8 145.5L54 156L71 173.1L88.1 156L54.9 125.3Z" fill="black"/>
<path d="M193.5 173.1C214.3 173.1 231.2 156.2 231.2 135.4C231.2 114.6 214.3 97.7 193.5 97.7C172.7 97.7 155.8 114.6 155.8 135.4C155.8 156.2 172.7 173.1 193.5 173.1ZM193.5 119.3C202.4 119.3 209.6 126.5 209.6 135.4C209.6 144.3 202.4 151.5 193.5 151.5C184.6 151.5 177.4 144.3 177.4 135.4C177.4 126.5 184.6 119.3 193.5 119.3Z" fill="black"/>
<path d="M224.7 189H224.5H154V213.1L223.7 213.4C224.1 213.4 224.6 213.1 225.2 213.1C231.2 213.1 246.5 211.9 258.1 201C263.9 195.5 270.9 185.4 270.9 168.3V102.2H246.8V168.3C246.8 175.1 245.1 180.1 241.7 183.4C236 188.9 226.4 189.1 225.4 189.1C225 189 224.8 189 224.7 189Z" fill="black"/>
<path d="M112.8 102.2V126H89.6999V150H112.8V186.7V188.6H111H96.0999C73.5999 188.6 55.2 206.9 55.2 229.5C55.2 252 73.4999 270.4 96.0999 270.4C118.6 270.4 137 252.1 137 229.5V214.6V192.6V186.8V167.2V102.3H112.8V102.2ZM112.8 214.5V229.4C112.8 238.6 105.3 246.1 96.0999 246.1C86.8999 246.1 79.4 238.6 79.4 229.4C79.4 220.2 86.8999 212.7 96.0999 212.7H111H112.9V214.5H112.8Z" fill="black"/>
<path d="M432.3 126H409.5V102.3H385.4V167.2V186.8V188.7H383.5H368.6C346.1 188.7 327.7 207 327.7 229.6C327.7 252.1 346 270.5 368.6 270.5C391.1 270.5 409.5 252.2 409.5 229.6V214.7V192.7V150H432.3V126ZM385.3 214.5V229.4C385.3 238.6 377.8 246.1 368.6 246.1C359.4 246.1 351.9 238.6 351.9 229.4C351.9 220.2 359.4 212.7 368.6 212.7H383.5H385.4V214.5H385.3Z" fill="black"/>
<path d="M256.5 89.5L206.3 39.3L223.2 22.4L256.5 55.7L312.1 0L329 16.9L256.5 89.5Z" fill="#FFF200"/>
</svg>
