<svg width="18" height="20" viewBox="0 0 18 20" fill="none" xmlns="http://www.w3.org/2000/svg">
<path d="M8.22644 0.375023C7.6921 0.375032 7.19156 0.636425 6.88621 1.07492L1.94901 8.16486C1.02189 9.49623 0.608669 11.1185 0.785881 12.7312L1.16554 16.1861C1.32778 17.6625 2.48683 18.832 3.96174 19.0075L6.43163 19.3013C8.31773 19.5256 10.2301 19.3312 12.0324 18.7317C13.294 18.3121 14.3044 17.3546 14.7913 16.1174L16.7846 11.0516C16.8811 10.8066 16.9477 10.5509 16.9831 10.29C17.2915 8.01827 15.2388 6.13628 13.0024 6.64022L8.45479 7.66492L9.80796 2.41593C10.0744 1.38226 9.29391 0.375005 8.22644 0.375023Z" fill="black"/>
</svg>
